<svg xmlns="http://www.w3.org/2000/svg" viewBox="0 0 512 512" style="" id="gen_fhagmimn3_8">
    <rect fill="#fbf5ff" data-fl-background="" width="100%" height="100%"></rect>
    <g data-icon=""
        transform="matrix(0.6197750451870885, 0, 0, 0.6197750451870885, 103.37450340128737, 31.199250607336594)">
        <ellipse clip-rule="evenodd" cx="246.259" cy="246.739" fill="#b392c5" fill-rule="evenodd" rx="238.017"
            ry="238.017"
            transform="matrix(0.7070000171661377, -0.7070000171661377, 0.7070000171661377, 0.7070000171661377, -102.34300231933594, 246.3990020751953)">
        </ellipse>
        <path d="m61.805 98.324-.639-1.215c.545-.673 1.083-1.351 1.634-2.017z" fill="#a882bd" clip-rule="evenodd"
            fill-rule="evenodd"></path>
        <path d="m8.251 247.472 5.29 9.291-4.041 14.568c-.805-7.846-1.225-15.806-1.249-23.859z" fill="#c4abd2"
            clip-rule="evenodd" fill-rule="evenodd"></path>
        <path d="m13.541 256.763-5.29-9.291c-.001-.245-.009-.488-.009-.733 0-3.751.098-7.48.269-11.189z" fill="#bea3cd"
            clip-rule="evenodd" fill-rule="evenodd"></path>
        <path d="m86.206 422.909 55.816-10.357-6.439 44.942c-17.929-9.435-34.515-21.075-49.377-34.585z" fill="#d6c5df"
            clip-rule="evenodd" fill-rule="evenodd"></path>
        <path d="m63.93 399.721 40.953-160.567 37.139 173.398-55.816 10.357c-7.937-7.216-15.374-14.97-22.276-23.188z"
            fill="#d2bedc" clip-rule="evenodd" fill-rule="evenodd"></path>
        <path d="m104.882 239.154-89.716-49.569c1.393-5.649 2.987-11.218 4.774-16.7l90.144-19.993z" fill="#c4a9d1"
            clip-rule="evenodd" fill-rule="evenodd"></path>
        <path d="m61.167 97.109.639 1.215-1.834.269c.395-.496.795-.99 1.195-1.484z" fill="#ab86be" clip-rule="evenodd"
            fill-rule="evenodd"></path>
        <path d="m59.971 98.593 1.834-.269-13.346 15.994c3.625-5.403 7.469-10.647 11.512-15.725z" fill="#b494c5"
            clip-rule="evenodd" fill-rule="evenodd"></path>
        <path d="m48.459 114.319 13.346-15.994 48.279 54.567-90.144 19.993c6.834-20.948 16.483-40.623 28.519-58.566z"
            fill="#ba9cca" clip-rule="evenodd" fill-rule="evenodd"></path>
        <path d="m13.541 256.763-5.03-21.213c.73-15.772 3.001-31.14 6.655-45.965l89.716 49.569z" fill="#c4abd2"
            clip-rule="evenodd" fill-rule="evenodd"></path>
        <path d="m15.69 306.039 89.192-66.885-40.952 160.567c-22.536-26.832-39.269-58.699-48.24-93.682z" fill="#cebada"
            clip-rule="evenodd" fill-rule="evenodd"></path>
        <path d="m9.5 271.331 4.041-14.569 91.341-17.609-89.192 66.886c-2.889-11.269-4.974-22.859-6.19-34.708z"
            fill="#cbb4d7" clip-rule="evenodd" fill-rule="evenodd"></path>
        <path d="m201.428 335.09-96.546-95.936 63.864-18.485z" fill="#d1bddc" clip-rule="evenodd" fill-rule="evenodd">
        </path>
        <path d="m168.746 220.669-58.662-67.777 40.852-70.412z" fill="#c1a6cf" clip-rule="evenodd" fill-rule="evenodd">
        </path>
        <path d="m104.882 239.154 5.202-86.262 58.662 67.777z" fill="#c9b3d6" clip-rule="evenodd" fill-rule="evenodd">
        </path>
        <path d="m336.601 189.862-47.531-85.375 82.038-60.415c3.426 2.115 6.792 4.315 10.1 6.596z" fill="#b99bca"
            clip-rule="evenodd" fill-rule="evenodd"></path>
        <path d="m61.805 98.324.996-3.233c11.959-14.451 25.593-27.462 40.603-38.743l47.532 26.131z" fill="#ae8cc1"
            clip-rule="evenodd" fill-rule="evenodd"></path>
        <path d="m110.084 152.892-48.279-54.568 89.131-15.844z" fill="#b799c8" clip-rule="evenodd" fill-rule="evenodd">
        </path>
        <path d="m150.936 82.48-47.532-26.131c14.457-10.865 30.197-20.111 46.943-27.494z" fill="#ab86be"
            clip-rule="evenodd" fill-rule="evenodd"></path>
        <path d="m142.022 412.552-37.14-173.398 96.546 95.936z" fill="#d4c1dd" clip-rule="evenodd" fill-rule="evenodd">
        </path>
        <path d="m313.58 312.206-62.386-42.245 85.407-80.099z" fill="#d0bcdb" clip-rule="evenodd" fill-rule="evenodd">
        </path>
        <path d="m135.582 457.494 6.439-44.942 43.305 64.319c-17.446-4.611-34.107-11.149-49.744-19.377z" fill="#d8c7e1"
            clip-rule="evenodd" fill-rule="evenodd"></path>
        <path d="m251.194 269.961 37.876-165.474 47.531 85.375z" fill="#c6aed4" clip-rule="evenodd" fill-rule="evenodd">
        </path>
        <path d="m150.936 82.48-.589-53.625c8.302-3.66 16.847-6.867 25.612-9.575l78.202 16.545z" fill="#ab86be"
            clip-rule="evenodd" fill-rule="evenodd"></path>
        <path d="m201.428 335.09-32.682-114.421 82.448 49.292z" fill="#d2bedc" clip-rule="evenodd" fill-rule="evenodd">
        </path>
        <path d="m261.589 480.318-119.567-67.766 59.406-77.462z" fill="#d9c9e2" clip-rule="evenodd" fill-rule="evenodd">
        </path>
        <path
            d="m185.327 476.871-43.305-64.319 119.567 67.766-8.45 4.332c-2.286.065-4.578.106-6.88.106-21.064 0-41.483-2.749-60.932-7.885z"
            fill="#dbcbe4" clip-rule="evenodd" fill-rule="evenodd"></path>
        <path d="m251.194 269.961-82.448-49.292 120.324-116.182z" fill="#c9b3d6" clip-rule="evenodd"
            fill-rule="evenodd"></path>
        <path d="m168.746 220.669-17.81-138.189 138.134 22.007z" fill="#bea3cd" clip-rule="evenodd" fill-rule="evenodd">
        </path>
        <path d="m289.07 104.487-138.134-22.007 103.226-46.655z" fill="#b392c5" clip-rule="evenodd" fill-rule="evenodd">
        </path>
        <path d="m253.139 484.65 8.45-4.332 1.874 3.814c-3.423.244-6.863.42-10.324.518z" fill="#e0d3e7"
            clip-rule="evenodd" fill-rule="evenodd"></path>
        <path d="m261.589 480.318-60.161-145.228 105.469 118.831z" fill="#dccde4" clip-rule="evenodd"
            fill-rule="evenodd"></path>
        <path d="m306.897 453.921-105.469-118.831 112.152-22.884z" fill="#d9c9e2" clip-rule="evenodd"
            fill-rule="evenodd"></path>
        <path d="m263.463 484.132-1.874-3.814 45.308-26.397-2.758 23.733c-13.16 3.288-26.751 5.483-40.676 6.478z"
            fill="#e2d5e9" clip-rule="evenodd" fill-rule="evenodd"></path>
        <path d="m201.428 335.09 49.766-65.129 62.386 42.245z" fill="#d4c1dd" clip-rule="evenodd" fill-rule="evenodd">
        </path>
        <path d="m289.07 104.487-34.908-68.662 97.398-2.583c6.7 3.311 13.222 6.926 19.548 10.83z" fill="#ae8cc1"
            clip-rule="evenodd" fill-rule="evenodd"></path>
        <path d="m306.897 453.921 6.683-141.715 69.81 45.767z" fill="#dbcbe4" clip-rule="evenodd" fill-rule="evenodd">
        </path>
        <path
            d="m254.162 35.825-78.202-16.546c3.133-.967 6.297-1.864 9.483-2.704l156.566 12.208c3.222 1.418 6.406 2.904 9.551 4.458z"
            fill="#a882bd" clip-rule="evenodd" fill-rule="evenodd"></path>
        <path d="m416.064 413.504-32.674-55.531 48.267-52.803 6.94 81.775c-6.863 9.398-14.396 18.275-22.533 26.559z"
            fill="#dacae3" clip-rule="evenodd" fill-rule="evenodd"></path>
        <path d="m383.39 357.973-69.81-45.767 118.078-7.036z" fill="#d5c4df" clip-rule="evenodd" fill-rule="evenodd">
        </path>
        <path d="m431.658 305.17-95.057-115.309 101.587-83.891c3.851 5.242 7.495 10.646 10.915 16.202z" fill="#c4abd2"
            clip-rule="evenodd" fill-rule="evenodd"></path>
        <path d="m336.601 189.862 44.607-139.194c21.941 15.13 41.213 33.846 56.98 55.302z" fill="#b799c8"
            clip-rule="evenodd" fill-rule="evenodd"></path>
        <path d="m357.581 457.153-50.684-3.232 76.493-95.947 32.674 55.531c-17.067 17.374-36.777 32.14-58.483 43.648z"
            fill="#e0d3e7" clip-rule="evenodd" fill-rule="evenodd"></path>
        <path d="m313.58 312.206 23.021-122.344 95.057 115.308z" fill="#cebada" clip-rule="evenodd" fill-rule="evenodd">
        </path>
        <path d="m304.14 477.654 2.758-23.733 50.684 3.232c-16.731 8.869-34.643 15.803-53.442 20.501z" fill="#e5dbec"
            clip-rule="evenodd" fill-rule="evenodd"></path>
        <path d="m282.547 11.471-80.877 1.439c14.446-2.738 29.347-4.188 44.589-4.188 12.338 0 24.456.939 36.288 2.749z"
            fill="#a37bb8" clip-rule="evenodd" fill-rule="evenodd"></path>
        <path
            d="m342.009 28.783-156.566-12.208c5.338-1.407 10.75-2.626 16.227-3.666l80.877-1.439c20.833 3.192 40.774 9.092 59.462 17.313z"
            fill="#a882bd" clip-rule="evenodd" fill-rule="evenodd"></path>
        <path d="m431.658 305.17 17.444-182.998c21.811 35.441 34.585 77.029 35.137 121.565z" fill="#c2a8d0"
            clip-rule="evenodd" fill-rule="evenodd"></path>
        <path d="m431.658 305.17 52.581-61.433c.012 1.001.038 1.998.038 3.002 0 16.113-1.61 31.849-4.662 47.064z"
            fill="#c6add4" clip-rule="evenodd" fill-rule="evenodd"></path>
        <path d="m438.597 386.945-6.94-81.775 35.116 31.273c-7.35 18.044-16.845 34.984-28.176 50.502z" fill="#d8c7e1"
            clip-rule="evenodd" fill-rule="evenodd"></path>
        <path d="m466.774 336.443-35.116-31.273 47.956-11.368c-2.964 14.752-7.29 29.01-12.84 42.641z" fill="#d0bcdb"
            clip-rule="evenodd" fill-rule="evenodd"></path>
        <path
            d="m246.259 1.292c67.778 0 129.139 27.473 173.557 71.891 44.418 44.417 71.891 105.779 71.891 173.557s-27.473 129.139-71.891 173.556c-44.418 44.418-105.779 71.891-173.557 71.891s-129.139-27.473-173.557-71.891c-44.417-44.418-71.89-105.78-71.89-173.557s27.473-129.139 71.89-173.557c44.418-44.418 105.779-71.89 173.557-71.89zm163.039 82.408c-41.725-41.725-99.368-67.532-163.039-67.532s-121.314 25.807-163.039 67.532-67.532 99.368-67.532 163.039 25.808 121.314 67.532 163.039c41.725 41.724 99.368 67.532 163.039 67.532s121.314-25.807 163.039-67.532 67.532-99.368 67.532-163.039-25.807-121.315-67.532-163.039z"
            fill="#544a59"></path>
        <path
            d="m246.26 160.491c-45.267 0-82.502 35.054-85.981 79.444 4.578-3.685 11.903-9.131 21.327-14.612 6.747-3.926 13.585-7.289 20.416-10.046.063-.029.127-.053.19-.078 2.785-1.12 5.571-2.141 8.346-3.056 12.12-4 24.133-6.027 35.702-6.027 11.571 0 23.582 2.028 35.702 6.027 2.776.915 5.561 1.936 8.346 3.056.063.025.127.049.189.078 6.83 2.757 13.669 6.12 20.416 10.046 9.425 5.481 16.749 10.927 21.327 14.612-3.477-44.389-40.713-79.444-85.98-79.444z"
            clip-rule="evenodd" fill="#544a59" fill-rule="evenodd"></path>
        <path
            d="m290.33 278.27c-2.793 1.126-5.584 2.147-8.367 3.066-12.12 4-24.131 6.027-35.702 6.027s-23.582-2.028-35.702-6.027c-2.783-.919-5.574-1.94-8.367-3.066-6.887-2.77-13.782-6.156-20.584-10.114-9.425-5.481-16.75-10.927-21.327-14.612 3.478 44.39 40.714 79.444 85.981 79.444s82.502-35.054 85.981-79.444c-4.578 3.685-11.903 9.13-21.327 14.612-6.804 3.958-13.699 7.344-20.586 10.114z"
            clip-rule="evenodd" fill="#544a59" fill-rule="evenodd"></path>
        <path
            d="m327.224 243.708c-4.474-3.524-11.171-8.392-19.493-13.223-3.407-1.976-7.262-4.045-11.488-6.05 2.707 6.061 4.288 12.575 4.653 19.273z"
            clip-rule="evenodd" fill="#544a59" fill-rule="evenodd"></path>
        <path
            d="m307.731 262.995c8.322-4.831 15.019-9.699 19.493-13.223h-26.327c-.366 6.698-1.946 13.212-4.653 19.273 4.225-2.005 8.08-4.074 11.487-6.05z"
            clip-rule="evenodd" fill="#544a59" fill-rule="evenodd"></path>
        <path
            d="m184.655 230.564c-8.278 4.814-14.923 9.644-19.366 13.144h26.335c.365-6.696 1.944-13.21 4.653-19.27-4.278 2.028-8.178 4.124-11.622 6.126z"
            clip-rule="evenodd" fill="#544a59" fill-rule="evenodd"></path>
        <path
            d="m165.293 249.771c4.474 3.522 11.173 8.392 19.497 13.223 3.407 1.976 7.262 4.045 11.488 6.05-2.708-6.061-4.288-12.575-4.654-19.273z"
            clip-rule="evenodd" fill="#544a59" fill-rule="evenodd"></path>
        <path
            d="m294.824 243.708c-.508-8.261-3.094-16.2-7.558-23.171-11.975-4.72-26.053-8.357-41.006-8.357-14.95 0-29.024 3.634-41.006 8.359h-.002c-4.464 6.971-7.048 14.908-7.556 23.169h26.949c1.478-10.607 10.609-18.796 21.615-18.796 11.007 0 20.137 8.189 21.615 18.796z"
            clip-rule="evenodd" fill="#544a59" fill-rule="evenodd"></path>
        <path
            d="m205.254 272.942c11.975 4.72 26.053 8.358 41.006 8.358s29.031-3.638 41.006-8.358c4.464-6.971 7.05-14.909 7.558-23.17h-26.948c-1.478 10.607-10.609 18.796-21.615 18.796-11.007 0-20.137-8.189-21.615-18.796h-26.949c.507 8.26 3.093 16.199 7.557 23.17z"
            clip-rule="evenodd" fill="#544a59" fill-rule="evenodd"></path>
        <path d="m246.26 262.504c7.657 0 14.055-5.485 15.47-12.733h-30.941c1.416 7.248 7.815 12.733 15.471 12.733z"
            clip-rule="evenodd" fill="#544a59" fill-rule="evenodd"></path>
        <path d="m246.26 230.976c-7.657 0-14.055 5.485-15.471 12.733h30.941c-1.415-7.248-7.813-12.733-15.47-12.733z"
            clip-rule="evenodd" fill="#544a59" fill-rule="evenodd"></path>
        <path
            d="m138.184 384.676h-29.861v-29.861c0-1.675-1.356-3.031-3.031-3.031s-3.032 1.357-3.032 3.031v32.893c0 1.675 1.357 3.031 3.032 3.031h32.892c1.675 0 3.032-1.356 3.032-3.031s-1.356-3.032-3.032-3.032z"
            clip-rule="evenodd" fill="#544a59" fill-rule="evenodd"></path>
        <path
            d="m387.229 351.784c-1.675 0-3.031 1.357-3.031 3.031v29.861h-29.861c-1.675 0-3.032 1.357-3.032 3.032s1.357 3.031 3.032 3.031h32.892c1.675 0 3.032-1.356 3.032-3.031v-32.893c-.001-1.675-1.357-3.031-3.032-3.031z"
            clip-rule="evenodd" fill="#544a59" fill-rule="evenodd"></path>
        <path
            d="m387.229 102.74h-32.892c-1.675 0-3.032 1.357-3.032 3.032s1.357 3.032 3.032 3.032h29.861v29.861c0 1.675 1.356 3.031 3.031 3.031s3.032-1.356 3.032-3.031v-32.893c-.001-1.676-1.357-3.032-3.032-3.032z"
            clip-rule="evenodd" fill="#544a59" fill-rule="evenodd"></path>
        <path
            d="m246.26 141.696c1.675 0 3.031-1.357 3.031-3.032v-32.893c0-1.675-1.357-3.032-3.031-3.032-1.675 0-3.032 1.357-3.032 3.032v32.893c.001 1.675 1.357 3.032 3.032 3.032z"
            clip-rule="evenodd" fill="#544a59" fill-rule="evenodd"></path>
        <path
            d="m246.26 351.784c-1.675 0-3.032 1.357-3.032 3.031v32.893c0 1.675 1.357 3.031 3.032 3.031s3.031-1.356 3.031-3.031v-32.893c.001-1.675-1.356-3.031-3.031-3.031z"
            clip-rule="evenodd" fill="#544a59" fill-rule="evenodd"></path>
        <path
            d="m387.229 243.708h-48.706c.032 1.008.049 2.018.049 3.031 0 1.014-.017 2.024-.049 3.032h48.706c1.675 0 3.032-1.357 3.032-3.032-.001-1.674-1.357-3.031-3.032-3.031z"
            clip-rule="evenodd" fill="#544a59" fill-rule="evenodd"></path>
        <path
            d="m105.292 243.708c-1.675 0-3.031 1.357-3.031 3.031 0 1.675 1.357 3.032 3.031 3.032h48.706c-.032-1.008-.049-2.018-.049-3.032 0-1.013.017-2.023.049-3.031z"
            clip-rule="evenodd" fill="#544a59" fill-rule="evenodd"></path>
        <path
            d="m105.292 141.696c1.675 0 3.032-1.357 3.032-3.032v-29.861h29.861c1.675 0 3.031-1.357 3.031-3.031 0-1.675-1.356-3.032-3.031-3.032h-32.893c-1.675 0-3.031 1.357-3.031 3.032v32.893c-.001 1.674 1.356 3.031 3.031 3.031z"
            clip-rule="evenodd" fill="#544a59" fill-rule="evenodd"></path>
    </g>
    <path text-anchor="middle" offset="0.5" fill="#6e6672" space="preserve" font-scale="contain" font-size="48"
        font-family="Oxanium" text="Kaliris" font-style="normal" font-weight="700" data-fl-textpath=""
        d="M-61.344 0L-68.256 0L-68.256-33.12L-61.344-33.12L-61.344-20.016L-49.632-33.12L-43.152-33.12L-42.48-31.728L-53.472-19.488L-41.28-1.392L-41.904 0L-48.288 0L-57.936-14.496L-61.344-10.8L-61.344 0ZM-16.8 0L-30.048 0Q-37.824 0 -37.824-7.632Q-37.824-15.264 -30.048-15.264L-30.048-15.264L-23.424-15.264L-23.424-18.048Q-23.424-19.584 -24.96-19.584L-24.96-19.584L-35.136-19.584L-35.136-23.184L-32.256-25.344L-24.576-25.344Q-16.8-25.344 -16.8-17.568L-16.8-17.568L-16.8 0ZM-31.2-8.64L-31.2-7.296Q-31.2-5.76 -29.664-5.76L-29.664-5.76L-23.424-5.76L-23.424-10.176L-29.664-10.176Q-31.2-10.176 -31.2-8.64L-31.2-8.64ZM-10.272-9.216L-10.272-9.216L-10.272-35.52L-3.648-35.52L-3.648-8.544Q-3.648-5.568 -0.576-5.232L-0.576-5.232L-0.576 0.48Q-10.272 0.48 -10.272-9.216ZM 11.568-29.52L 4.656-29.52L 4.656-36L 11.568-36L 11.568-29.52ZM 11.424 0L 4.8 0L 4.8-25.344L 11.424-25.344L 11.424 0ZM 24.768 0L 18.144 0L 18.144-22.08Q 19.92-25.344  24.96-25.344L 24.96-25.344L 30.144-25.344L 33.024-23.184L 33.024-19.584L 26.736-19.584Q 25.296-19.584  24.768-18.864L 24.768-18.864L 24.768 0ZM 44.496-29.52L 37.584-29.52L 37.584-36L 44.496-36L 44.496-29.52ZM 44.352 0L 37.728 0L 37.728-25.344L 44.352-25.344L 44.352 0ZM 53.28 0L 50.4-2.16L 50.4-5.76L 61.44-5.76Q 63.072-5.76  63.072-7.584L 63.072-7.584Q 63.072-9.456  61.728-9.696L 61.728-9.696L 56.544-10.56Q 50.4-11.616  50.4-17.664L 50.4-17.664Q 50.4-25.344  58.176-25.344L 58.176-25.344L 65.616-25.344L 68.496-23.184L 68.496-19.584L 58.56-19.584Q 56.928-19.584  56.928-17.76L 56.928-17.76Q 56.928-15.84  58.416-15.6L 58.416-15.6L 63.552-14.736Q 69.648-13.728  69.648-7.728L 69.648-7.728Q 69.648 0  61.824 0L 61.824 0L 53.28 0Z"
        transform="matrix(2.376910022750759, 0, 0, 2.376910022750759, 254.3456726552165, 478.8590842771427)"></path>
</svg>